<?xml version="1.0" encoding="UTF-8"?>
<svg version="1.1" xmlns="http://www.w3.org/2000/svg" width="144" height="144">
<path d="M0 0 C47.52 0 95.04 0 144 0 C144 47.52 144 95.04 144 144 C96.48 144 48.96 144 0 144 C0 96.48 0 48.96 0 0 Z " fill="#F6F6F6" transform="translate(0,0)"/>
<path d="M0 0 C0.33 0.33 0.66 0.66 1 1 C3.32817964 1.36760731 5.6618385 1.70241581 8 2 C8.33 3.65 8.66 5.3 9 7 C11.97 7.495 11.97 7.495 15 8 C15 7.34 15 6.68 15 6 C16.98 6 18.96 6 21 6 C21.495 8.97 21.495 8.97 22 12 C22.66 12 23.32 12 24 12 C23.505 9.03 23.505 9.03 23 6 C25.97922593 5.97316013 28.95821295 5.95323963 31.9375 5.9375 C33.21270508 5.92493164 33.21270508 5.92493164 34.51367188 5.91210938 C35.32255859 5.90888672 36.13144531 5.90566406 36.96484375 5.90234375 C37.7137085 5.89710693 38.46257324 5.89187012 39.23413086 5.88647461 C41 6 41 6 42 7 C42.04063832 8.66617115 42.042721 10.33388095 42 12 C42.66 12 43.32 12 44 12 C43.505 9.03 43.505 9.03 43 6 C51 6 59 6 67 6 C67 7.98 67 9.96 67 12 C67.66 12 68.32 12 69 12 C69 10.02 69 8.04 69 6 C71.4375 6.375 71.4375 6.375 74 7 C74.495 7.99 74.495 7.99 75 9 C75.33 8.34 75.66 7.68 76 7 C76.66 7 77.32 7 78 7 C78.19393875 9.14526099 78.37998676 11.29123677 78.5625 13.4375 C78.71912109 15.22994141 78.71912109 15.22994141 78.87890625 17.05859375 C78.93884766 18.51458984 78.93884766 18.51458984 79 20 C78 21 78 21 75.86694336 21.11352539 C74.95050049 21.10828857 74.03405762 21.10305176 73.08984375 21.09765625 C72.10048828 21.09443359 71.11113281 21.09121094 70.09179688 21.08789062 C69.05087891 21.07951172 68.00996094 21.07113281 66.9375 21.0625 C65.89271484 21.05798828 64.84792969 21.05347656 63.77148438 21.04882812 C61.1809334 21.03699913 58.59049441 21.02051689 56 21 C56 20.34 56 19.68 56 19 C55.34 19 54.68 19 54 19 C54 19.66 54 20.32 54 21 C53.01 21 52.02 21 51 21 C50.505 19.02 50.505 19.02 50 17 C49.896875 17.639375 49.79375 18.27875 49.6875 18.9375 C49.460625 19.618125 49.23375 20.29875 49 21 C48.01 21.33 47.02 21.66 46 22 C44.79117904 24.00016466 44.79117904 24.00016466 44 26 C43.28884033 25.83701416 42.57768066 25.67402832 41.8449707 25.50610352 C38.98439204 24.99722344 36.38280642 24.88612957 33.48046875 24.90234375 C31.9480957 24.90717773 31.9480957 24.90717773 30.38476562 24.91210938 C28.80211914 24.92467773 28.80211914 24.92467773 27.1875 24.9375 C26.11306641 24.94201172 25.03863281 24.94652344 23.93164062 24.95117188 C21.28770317 24.96292271 18.64388048 24.97935213 16 25 C16 24.34 16 23.68 16 23 C19.3 22.67 22.6 22.34 26 22 C24.02 21.67 22.04 21.34 20 21 C20 20.01 20 19.02 20 18 C19.34 18 18.68 18 18 18 C18 18.99 18 19.98 18 21 C17.01 21 16.02 21 15 21 C14.34 18.69 13.68 16.38 13 14 C12.34 14 11.68 14 11 14 C10.7525 15.0725 10.505 16.145 10.25 17.25 C8.99524687 21.01425938 8.12041784 22.63604709 5 25 C4.01 25 3.02 25 2 25 C1.80664062 24.31292969 1.61328125 23.62585938 1.4140625 22.91796875 C1.15367188 22.01691406 0.89328125 21.11585937 0.625 20.1875 C0.36976562 19.29417969 0.11453125 18.40085937 -0.1484375 17.48046875 C-0.95266661 14.79532104 -0.95266661 14.79532104 -3 12 C-5.3140622 11.26924352 -7.64828869 10.59861742 -10 10 C-11 9 -11 9 -11.3125 6.6875 C-11 4 -11 4 -9.4375 1.6875 C-6.16324309 -0.57929325 -3.89654046 -0.36759816 0 0 Z " fill="#F4E1BB" transform="translate(37,59)"/>
<path d="M0 0 C0.33 0.33 0.66 0.66 1 1 C3.32817964 1.36760731 5.6618385 1.70241581 8 2 C8.33 3.65 8.66 5.3 9 7 C11.97 7.495 11.97 7.495 15 8 C15 7.34 15 6.68 15 6 C16.98 6 18.96 6 21 6 C21.495 8.97 21.495 8.97 22 12 C22.66 12 23.32 12 24 12 C23.505 9.03 23.505 9.03 23 6 C25.97922593 5.97316013 28.95821295 5.95323963 31.9375 5.9375 C33.21270508 5.92493164 33.21270508 5.92493164 34.51367188 5.91210938 C35.32255859 5.90888672 36.13144531 5.90566406 36.96484375 5.90234375 C37.7137085 5.89710693 38.46257324 5.89187012 39.23413086 5.88647461 C41 6 41 6 42 7 C42.04063832 8.66617115 42.042721 10.33388095 42 12 C42.66 12 43.32 12 44 12 C44 10.35 44 8.7 44 7 C45.32 7 46.64 7 48 7 C48 9.31 48 11.62 48 14 C45.03 14 42.06 14 39 14 C38.505 13.01 38.505 13.01 38 12 C37.67 12.66 37.34 13.32 37 14 C35.68 14 34.36 14 33 14 C32.505 11.525 32.505 11.525 32 9 C31.01 9 30.02 9 29 9 C28.67 10.65 28.34 12.3 28 14 C22.39 14 16.78 14 11 14 C10.34 16.31 9.68 18.62 9 21 C7.0625 23.4375 7.0625 23.4375 5 25 C4.01 25 3.02 25 2 25 C1.80664062 24.31292969 1.61328125 23.62585938 1.4140625 22.91796875 C1.15367188 22.01691406 0.89328125 21.11585937 0.625 20.1875 C0.36976562 19.29417969 0.11453125 18.40085937 -0.1484375 17.48046875 C-0.95266661 14.79532104 -0.95266661 14.79532104 -3 12 C-5.3140622 11.26924352 -7.64828869 10.59861742 -10 10 C-11 9 -11 9 -11.3125 6.6875 C-11 4 -11 4 -9.4375 1.6875 C-6.16324309 -0.57929325 -3.89654046 -0.36759816 0 0 Z " fill="#4B2919" transform="translate(37,59)"/>
<path d="M0 0 C0 1.98 0 3.96 0 6 C1.32 6 2.64 6 4 6 C4.33 5.01 4.66 4.02 5 3 C5.33 3.99 5.66 4.98 6 6 C6.95712891 5.98259766 6.95712891 5.98259766 7.93359375 5.96484375 C8.75988281 5.95582031 9.58617188 5.94679688 10.4375 5.9375 C11.26121094 5.92589844 12.08492187 5.91429688 12.93359375 5.90234375 C15 6 15 6 16 7 C16.04080783 8.99958364 16.04254356 11.00045254 16 13 C15.01 13.33 14.02 13.66 13 14 C11.79117904 16.00016466 11.79117904 16.00016466 11 18 C10.28884033 17.83701416 9.57768066 17.67402832 8.8449707 17.50610352 C5.98439204 16.99722344 3.38280642 16.88612957 0.48046875 16.90234375 C-1.0519043 16.90717773 -1.0519043 16.90717773 -2.61523438 16.91210938 C-4.19788086 16.92467773 -4.19788086 16.92467773 -5.8125 16.9375 C-6.88693359 16.94201172 -7.96136719 16.94652344 -9.06835938 16.95117188 C-11.71229683 16.96292271 -14.35611952 16.97935213 -17 17 C-17 16.34 -17 15.68 -17 15 C-13.7 14.67 -10.4 14.34 -7 14 C-9.97 13.505 -9.97 13.505 -13 13 C-13 12.01 -13 11.02 -13 10 C-13.66 10 -14.32 10 -15 10 C-15 10.99 -15 11.98 -15 13 C-15.99 13 -16.98 13 -18 13 C-18.33 10.69 -18.66 8.38 -19 6 C-18.01 6 -17.02 6 -16 6 C-15.67 5.34 -15.34 4.68 -15 4 C-15 4.66 -15 5.32 -15 6 C-11.7 6 -8.4 6 -5 6 C-4.67 4.35 -4.34 2.7 -4 1 C-1 0 -1 0 0 0 Z " fill="#F3E3BA" transform="translate(70,67)"/>
<path d="M0 0 C1.98 0 3.96 0 6 0 C6.33 1.98 6.66 3.96 7 6 C7.66 6 8.32 6 9 6 C8.67 4.02 8.34 2.04 8 0 C10.97922593 -0.02683987 13.95821295 -0.04676037 16.9375 -0.0625 C18.21270508 -0.07506836 18.21270508 -0.07506836 19.51367188 -0.08789062 C20.32255859 -0.09111328 21.13144531 -0.09433594 21.96484375 -0.09765625 C22.7137085 -0.10289307 23.46257324 -0.10812988 24.23413086 -0.11352539 C26 0 26 0 27 1 C27.04063832 2.66617115 27.042721 4.33388095 27 6 C27.66 6 28.32 6 29 6 C29 4.35 29 2.7 29 1 C30.32 1 31.64 1 33 1 C33 3.31 33 5.62 33 8 C30.03 8 27.06 8 24 8 C23.67 7.34 23.34 6.68 23 6 C22.67 6.66 22.34 7.32 22 8 C20.68 8 19.36 8 18 8 C17.67 6.35 17.34 4.7 17 3 C16.01 3 15.02 3 14 3 C13.67 4.65 13.34 6.3 13 8 C8.05 8 3.1 8 -2 8 C-2 5 -2 5 -1 3 C-2.32 2.67 -3.64 2.34 -5 2 C-4.34 1.67 -3.68 1.34 -3 1 C-2.01 1.33 -1.02 1.66 0 2 C0 1.34 0 0.68 0 0 Z " fill="#ED4B50" transform="translate(52,65)"/>
<path d="M0 0 C0.33 0.33 0.66 0.66 1 1 C3.32817964 1.36760731 5.6618385 1.70241581 8 2 C8.33 3.65 8.66 5.3 9 7 C4.38 7 -0.24 7 -5 7 C-4.34 8.32 -3.68 9.64 -3 11 C-5.875 11.125 -5.875 11.125 -9 11 C-11 9 -11 9 -11.375 6.625 C-11 4 -11 4 -9.4375 1.6875 C-6.16324309 -0.57929325 -3.89654046 -0.36759816 0 0 Z " fill="#E6282D" transform="translate(37,59)"/>
<path d="M0 0 C5.33333333 0 10.66666667 0 16 0 C17.125 5.75 17.125 5.75 16 8 C16.99 8 17.98 8 19 8 C19 7.34 19 6.68 19 6 C19.66 6 20.32 6 21 6 C20.38722388 8.96175123 19.74627478 10.38058783 18 13 C17.67 12.01 17.34 11.02 17 10 C14.36 9.67 11.72 9.34 9 9 C9.66 10.98 10.32 12.96 11 15 C10.01 15 9.02 15 8 15 C5.37625198 9.75250397 4.90465284 6.91152367 5 1 C3.35 1.33 1.7 1.66 0 2 C0 1.34 0 0.68 0 0 Z " fill="#F4D9D3" transform="translate(80,65)"/>
<path d="M0 0 C0.495 1.98 0.495 1.98 1 4 C0.01 4.33 -0.98 4.66 -2 5 C-3.20882096 7.00016466 -3.20882096 7.00016466 -4 9 C-4.71115967 8.83701416 -5.42231934 8.67402832 -6.1550293 8.50610352 C-9.01560796 7.99722344 -11.61719358 7.88612957 -14.51953125 7.90234375 C-16.0519043 7.90717773 -16.0519043 7.90717773 -17.61523438 7.91210938 C-19.19788086 7.92467773 -19.19788086 7.92467773 -20.8125 7.9375 C-21.88693359 7.94201172 -22.96136719 7.94652344 -24.06835938 7.95117188 C-26.71229683 7.96292271 -29.35611952 7.97935213 -32 8 C-32 7.34 -32 6.68 -32 6 C-25.62694402 5.25492456 -19.41688675 4.89650183 -13 5 C-13 4.34 -13 3.68 -13 3 C-12.21625 3.04125 -11.4325 3.0825 -10.625 3.125 C-7.83883881 3.28728734 -7.83883881 3.28728734 -6 1 C-6 1.66 -6 2.32 -6 3 C-5.38125 2.814375 -4.7625 2.62875 -4.125 2.4375 C-2 2 -2 2 0 3 C0 2.01 0 1.02 0 0 Z " fill="#DCACA4" transform="translate(85,76)"/>
<path d="M0 0 C0.33 1.32 0.66 2.64 1 4 C1.99 4 2.98 4 4 4 C4 2.68 4 1.36 4 0 C4.99 0 5.98 0 7 0 C7 1.32 7 2.64 7 4 C7.66 4 8.32 4 9 4 C9.33 2.68 9.66 1.36 10 0 C14.29 0 18.58 0 23 0 C22.67 1.65 22.34 3.3 22 5 C20.9275 4.979375 19.855 4.95875 18.75 4.9375 C15.28060531 4.84432807 15.28060531 4.84432807 13.125 5.5 C10.45410947 6.12844483 7.99055237 6.09512562 5.25 6.0625 C4.26515625 6.05347656 3.2803125 6.04445313 2.265625 6.03515625 C1.51796875 6.02355469 0.7703125 6.01195313 0 6 C0 4.02 0 2.04 0 0 Z " fill="#F0EE5F" transform="translate(63,74)"/>
<path d="M0 0 C5 0 10 0 15 0 C15 0.66 15 1.32 15 2 C14.01 2 13.02 2 12 2 C12.33 2.66 12.66 3.32 13 4 C13.99 3.67 14.98 3.34 16 3 C15.67 3.99 15.34 4.98 15 6 C11.37 6 7.74 6 4 6 C4 5.34 4 4.68 4 4 C2.68 4.33 1.36 4.66 0 5 C0 3.35 0 1.7 0 0 Z " fill="#F0ED55" transform="translate(89,74)"/>
<path d="M0 0 C0 1.98 0 3.96 0 6 C1.32 6 2.64 6 4 6 C4.33 5.01 4.66 4.02 5 3 C5.33 3.99 5.66 4.98 6 6 C8.97 6 11.94 6 15 6 C14.01 7.485 14.01 7.485 13 9 C13 8.34 13 7.68 13 7 C12.34 7 11.68 7 11 7 C10.67 7.66 10.34 8.32 10 9 C10 8.34 10 7.68 10 7 C7.69 7.33 5.38 7.66 3 8 C2.67 8.99 2.34 9.98 2 11 C1.34 11 0.68 11 0 11 C0 9.68 0 8.36 0 7 C-0.99 7 -1.98 7 -3 7 C-3 8.32 -3 9.64 -3 11 C-3.66 11 -4.32 11 -5 11 C-5.125 3.25 -5.125 3.25 -4 1 C-1 0 -1 0 0 0 Z " fill="#F4E1D4" transform="translate(70,67)"/>
<path d="M0 0 C0.33 0 0.66 0 1 0 C1 1.65 1 3.3 1 5 C1.99 5 2.98 5 4 5 C4 4.34 4 3.68 4 3 C4.66 3 5.32 3 6 3 C7.08174162 6.36541838 6.92538169 7.29847322 6 11 C2.7 10.67 -0.6 10.34 -4 10 C-4 8.35 -4 6.7 -4 5 C-3.01 5 -2.02 5 -1 5 C-0.67 3.35 -0.34 1.7 0 0 Z " fill="#EDF4F2" transform="translate(87,75)"/>
<path d="M0 0 C0.33 0 0.66 0 1 0 C0.51282051 6.33333333 0.51282051 6.33333333 -1.875 9.4375 C-4 11 -4 11 -7 11 C-8.25664978 8.09399739 -9 6.20395416 -9 3 C-6.03 3 -3.06 3 0 3 C0 2.01 0 1.02 0 0 Z " fill="#E1272C" transform="translate(46,73)"/>
<path d="M0 0 C2.31 0 4.62 0 7 0 C7.33 2.64 7.66 5.28 8 8 C6.68 8 5.36 8 4 8 C4 7.34 4 6.68 4 6 C3.34 6 2.68 6 2 6 C2 6.66 2 7.32 2 8 C1.01 8 0.02 8 -1 8 C-0.67 5.36 -0.34 2.72 0 0 Z " fill="#ED4B50" transform="translate(97,65)"/>
<path d="M0 0 C2.4375 0.375 2.4375 0.375 5 1 C5.33 1.66 5.66 2.32 6 3 C6.33 2.34 6.66 1.68 7 1 C7.66 1 8.32 1 9 1 C9 3.31 9 5.62 9 8 C5.125 7.125 5.125 7.125 4 6 C3.67 6.66 3.34 7.32 3 8 C2.01 8 1.02 8 0 8 C0 5.36 0 2.72 0 0 Z " fill="#EC272E" transform="translate(106,65)"/>
<path d="M0 0 C0.33 0 0.66 0 1 0 C1 1.65 1 3.3 1 5 C1.66 5 2.32 5 3 5 C3 3.35 3 1.7 3 0 C4.32 0 5.64 0 7 0 C7 2.31 7 4.62 7 7 C4.03 7 1.06 7 -2 7 C-1 3 -1 3 0 0 Z " fill="#ED4146" transform="translate(78,66)"/>
<path d="M0 0 C1.98 0 3.96 0 6 0 C5.34 0.66 4.68 1.32 4 2 C3.83318891 5.08347826 3.83318891 5.08347826 4 8 C2.02 8 0.04 8 -2 8 C-2 5 -2 5 -1 3 C-2.32 2.67 -3.64 2.34 -5 2 C-4.34 1.67 -3.68 1.34 -3 1 C-2.01 1.33 -1.02 1.66 0 2 C0 1.34 0 0.68 0 0 Z " fill="#EA7375" transform="translate(52,65)"/>
<path d="M0 0 C1.134375 0.020625 2.26875 0.04125 3.4375 0.0625 C3.4375 1.0525 3.4375 2.0425 3.4375 3.0625 C1.7875 2.7325 0.1375 2.4025 -1.5625 2.0625 C-1.5625 3.3825 -1.5625 4.7025 -1.5625 6.0625 C0.0875 5.7325 1.7375 5.4025 3.4375 5.0625 C3.1075 6.0525 2.7775 7.0425 2.4375 8.0625 C0.43795254 8.10504356 -1.56291636 8.10330783 -3.5625 8.0625 C-4.5625 7.0625 -4.5625 7.0625 -4.6875 4.0625 C-4.50687014 -0.27261656 -4.44520527 0.07798606 0 0 Z " fill="#EC4449" transform="translate(91.5625,64.9375)"/>
<path d="M0 0 C0.33 1.32 0.66 2.64 1 4 C1.99 4 2.98 4 4 4 C4 2.68 4 1.36 4 0 C4.99 0 5.98 0 7 0 C7 1.32 7 2.64 7 4 C7.66 4 8.32 4 9 4 C9.33 3.01 9.66 2.02 10 1 C9.67 2.65 9.34 4.3 9 6 C6.03 6 3.06 6 0 6 C0 4.02 0 2.04 0 0 Z " fill="#F0ED62" transform="translate(63,74)"/>
<path d="M0 0 C1.98 0 3.96 0 6 0 C6.27714844 0.91523437 6.55429688 1.83046875 6.83984375 2.7734375 C7.20207031 3.96195312 7.56429687 5.15046875 7.9375 6.375 C8.29714844 7.55835937 8.65679687 8.74171875 9.02734375 9.9609375 C9.87576274 12.87926818 9.87576274 12.87926818 11 15 C10.01 15 9.02 15 8 15 C5.37625198 9.75250397 4.90465284 6.91152367 5 1 C3.35 1.33 1.7 1.66 0 2 C0 1.34 0 0.68 0 0 Z " fill="#F3D2C0" transform="translate(80,65)"/>
<path d="M0 0 C0.99 0 1.98 0 3 0 C3 0.66 3 1.32 3 2 C3.66 2 4.32 2 5 2 C5 1.34 5 0.68 5 0 C5.99 0 6.98 0 8 0 C8.33 1.32 8.66 2.64 9 4 C6.03 4 3.06 4 0 4 C0 2.68 0 1.36 0 0 Z " fill="#73D2E2" transform="translate(83,81)"/>
<path d="M0 0 C0.95465783 2.16967689 1.14401212 3.56328793 0.3984375 5.82421875 C-0.35870385 7.5684743 -1.17609198 9.28627131 -2 11 C-2.66 11 -3.32 11 -4 11 C-4.125 3.25 -4.125 3.25 -3 1 C-2.01 0.67 -1.02 0.34 0 0 Z " fill="#F7F2F3" transform="translate(69,67)"/>
<path d="M0 0 C2.475 0.495 2.475 0.495 5 1 C5 2.32 5 3.64 5 5 C4.34 5 3.68 5 3 5 C3 5.99 3 6.98 3 8 C2.34 8 1.68 8 1 8 C0.67 5.36 0.34 2.72 0 0 Z " fill="#C3C019" transform="translate(42,67)"/>
<path d="M0 0 C1.98 0.495 1.98 0.495 4 1 C3.67 2.65 3.34 4.3 3 6 C1.68 5.67 0.36 5.34 -1 5 C-0.67 3.35 -0.34 1.7 0 0 Z " fill="#F0EE5A" transform="translate(112,74)"/>
<path d="M0 0 C1.32 0 2.64 0 4 0 C4 3.11257569 3.82638376 5.10765685 3 8 C2.01 8 1.02 8 0 8 C0 5.36 0 2.72 0 0 Z " fill="#ED4C50" transform="translate(106,65)"/>
<path d="M0 0 C1.2065625 0.0309375 1.2065625 0.0309375 2.4375 0.0625 C2.1075 1.7125 1.7775 3.3625 1.4375 5.0625 C-0.5425 5.0625 -2.5225 5.0625 -4.5625 5.0625 C-3.43829114 0.08386076 -3.43829114 0.08386076 0 0 Z " fill="#EEEB38" transform="translate(83.5625,73.9375)"/>
<path d="M0 0 C1.32 0 2.64 0 4 0 C4 1.98 4 3.96 4 6 C2.68 6 1.36 6 0 6 C0 4.02 0 2.04 0 0 Z " fill="#EFEC51" transform="translate(57,74)"/>
<path d="M0 0 C1.32 0 2.64 0 4 0 C4 1.98 4 3.96 4 6 C2.68 6 1.36 6 0 6 C0 4.02 0 2.04 0 0 Z " fill="#EFED53" transform="translate(106,74)"/>
<path d="M0 0 C1.65 0 3.3 0 5 0 C5 2.31 5 4.62 5 7 C4.34 7 3.68 7 3 7 C2.67 6.01 2.34 5.02 2 4 C1.01 4.495 1.01 4.495 0 5 C-0.33 4.01 -0.66 3.02 -1 2 C-0.67 1.34 -0.34 0.68 0 0 Z " fill="#C8C12E" transform="translate(35,68)"/>
<path d="M0 0 C0.33 0.99 0.66 1.98 1 3 C2.65 2.67 4.3 2.34 6 2 C5.67 2.99 5.34 3.98 5 5 C3.02 5 1.04 5 -1 5 C-1 1 -1 1 0 0 Z " fill="#EB363B" transform="translate(89,68)"/>
<path d="M0 0 C1.32 0 2.64 0 4 0 C4.625 2.875 4.625 2.875 5 6 C4.34 6.66 3.68 7.32 3 8 C3 7.34 3 6.68 3 6 C2.34 6 1.68 6 1 6 C1.33 4.35 1.66 2.7 2 1 C1.34 0.67 0.68 0.34 0 0 Z " fill="#674715" transform="translate(38,67)"/>
<path d="M0 0 C2.31 0 4.62 0 7 0 C6.01 0.33 5.02 0.66 4 1 C4.33 1.99 4.66 2.98 5 4 C4.34 4 3.68 4 3 4 C3 4.66 3 5.32 3 6 C2.34 6 1.68 6 1 6 C0.67 4.02 0.34 2.04 0 0 Z " fill="#EC2027" transform="translate(61,66)"/>
<path d="M0 0 C1.65 0 3.3 0 5 0 C4.67 1.98 4.34 3.96 4 6 C3.01 6 2.02 6 1 6 C0.67 4.02 0.34 2.04 0 0 Z " fill="#F0EE5D" transform="translate(51,74)"/>
<path d="M0 0 C1.32 0 2.64 0 4 0 C4 1.32 4 2.64 4 4 C2.68 4.33 1.36 4.66 0 5 C0 3.35 0 1.7 0 0 Z " fill="#EFEC42" transform="translate(89,74)"/>
</svg>
