<?xml version="1.0" encoding="UTF-8"?>
<svg version="1.1" xmlns="http://www.w3.org/2000/svg" width="72" height="72">
<path d="M0 0 C23.76 0 47.52 0 72 0 C72 23.76 72 47.52 72 72 C48.24 72 24.48 72 0 72 C0 48.24 0 24.48 0 0 Z " fill="#F6F6F6" transform="translate(0,0)"/>
<path d="M0 0 C1.27875 -0.061875 2.5575 -0.12375 3.875 -0.1875 C4.95394531 -0.23970703 4.95394531 -0.23970703 6.0546875 -0.29296875 C6.69664063 -0.19628906 7.33859375 -0.09960938 8 0 C8.66 0.99 9.32 1.98 10 3 C12.43693311 3.36416047 12.43693311 3.36416047 15.125 3.1875 C16.49011719 3.14689453 16.49011719 3.14689453 17.8828125 3.10546875 C18.58148438 3.07066406 19.28015625 3.03585938 20 3 C19.34 4.98 18.68 6.96 18 9 C18.66 9 19.32 9 20 9 C20.33 7.02 20.66 5.04 21 3 C25.68033668 2.28605034 29.36949418 1.73713478 34 3 C34.33 3 34.66 3 35 3 C38 3 41 3 44 3 C44 5.97 44 8.94 44 12 C42.25034642 12.05429959 40.50020213 12.09292823 38.75 12.125 C37.77546875 12.14820313 36.8009375 12.17140625 35.796875 12.1953125 C32.94113454 11.99588928 31.46489315 11.35994105 29 10 C26.33290931 9.83249586 26.33290931 9.83249586 24 10 C24 10.66 24 11.32 24 12 C20.04 12 16.08 12 12 12 C11.67 10.68 11.34 9.36 11 8 C10.3503125 8.99 10.3503125 8.99 9.6875 10 C9.130625 10.66 8.57375 11.32 8 12 C7.01 12 6.02 12 5 12 C4.7525 11.05125 4.505 10.1025 4.25 9.125 C3.3142923 5.91306809 3.3142923 5.91306809 0.875 4.625 C0.25625 4.41875 -0.3625 4.2125 -1 4 C-0.67 2.68 -0.34 1.36 0 0 Z " fill="#EF7273" transform="translate(14,30)"/>
<path d="M0 0 C1.27875 -0.061875 2.5575 -0.12375 3.875 -0.1875 C4.95394531 -0.23970703 4.95394531 -0.23970703 6.0546875 -0.29296875 C6.69664063 -0.19628906 7.33859375 -0.09960938 8 0 C8.66 0.99 9.32 1.98 10 3 C12.43693311 3.36416047 12.43693311 3.36416047 15.125 3.1875 C16.49011719 3.14689453 16.49011719 3.14689453 17.8828125 3.10546875 C18.58148438 3.07066406 19.28015625 3.03585938 20 3 C19.67 4.32 19.34 5.64 19 7 C17.1128125 6.8453125 17.1128125 6.8453125 15.1875 6.6875 C13.00066054 6.60354006 13.00066054 6.60354006 11 7 C9.1375562 9.40858714 9.1375562 9.40858714 8 12 C7.01 12 6.02 12 5 12 C4.7525 11.05125 4.505 10.1025 4.25 9.125 C3.3142923 5.91306809 3.3142923 5.91306809 0.875 4.625 C0.25625 4.41875 -0.3625 4.2125 -1 4 C-0.67 2.68 -0.34 1.36 0 0 Z " fill="#E33337" transform="translate(14,30)"/>
<path d="M0 0 C2.31 0 4.62 0 7 0 C7 0.66 7 1.32 7 2 C7.66 2 8.32 2 9 2 C9 1.34 9 0.68 9 0 C11.97 0 14.94 0 18 0 C18 0.99 18 1.98 18 3 C16.35 3 14.7 3 13 3 C13 3.66 13 4.32 13 5 C9.04 5 5.08 5 1 5 C0.67 3.35 0.34 1.7 0 0 Z " fill="#F1B9AC" transform="translate(25,37)"/>
<path d="M0 0 C0.78503906 -0.00257812 1.57007813 -0.00515625 2.37890625 -0.0078125 C4.4375 0.125 4.4375 0.125 6.4375 1.125 C6.4375 2.775 6.4375 4.425 6.4375 6.125 C4.66700311 6.17910687 2.89603151 6.21784119 1.125 6.25 C-0.35419922 6.28480469 -0.35419922 6.28480469 -1.86328125 6.3203125 C-4.5625 6.125 -4.5625 6.125 -7.5625 4.125 C-7.5625 3.135 -7.5625 2.145 -7.5625 1.125 C-4.73533905 0.18261302 -2.93073877 -0.00965647 0 0 Z " fill="#F1EF7A" transform="translate(51.5625,35.875)"/>
<path d="M0 0 C0.33 1.32 0.66 2.64 1 4 C3.97 4 6.94 4 10 4 C10 4.33 10 4.66 10 5 C12.475 5.495 12.475 5.495 15 6 C15 6.33 15 6.66 15 7 C8.73 7 2.46 7 -4 7 C-4.33 6.01 -4.66 5.02 -5 4 C-3.35 4 -1.7 4 0 4 C0 2.68 0 1.36 0 0 Z " fill="#F0E7E4" transform="translate(43,36)"/>
<path d="M0 0 C2.64 0 5.28 0 8 0 C7.67 1.32 7.34 2.64 7 4 C4.36 4 1.72 4 -1 4 C-0.67 2.68 -0.34 1.36 0 0 Z " fill="#EE6969" transform="translate(26,33)"/>
<path d="M0 0 C2.64 0 5.28 0 8 0 C8.33 0.99 8.66 1.98 9 3 C8.01 4.485 8.01 4.485 7 6 C5.68 5.34 4.36 4.68 3 4 C3.33 3.01 3.66 2.02 4 1 C2.68 0.67 1.36 0.34 0 0 Z " fill="#825F23" transform="translate(16,33)"/>
<path d="M0 0 C0.99 0.33 1.98 0.66 3 1 C3 2.65 3 4.3 3 6 C-0.63 6 -4.26 6 -8 6 C-8 5.67 -8 5.34 -8 5 C-5.36 4.67 -2.72 4.34 0 4 C0 2.68 0 1.36 0 0 Z " fill="#F0B88D" transform="translate(55,36)"/>
<path d="M0 0 C0.99 0 1.98 0 3 0 C3 0.99 3 1.98 3 3 C3.99 3.33 4.98 3.66 6 4 C5.67 5.32 5.34 6.64 5 8 C4.01 8 3.02 8 2 8 C1.34 5.36 0.68 2.72 0 0 Z " fill="#CC613F" transform="translate(17,34)"/>
<path d="M0 0 C2.31 0 4.62 0 7 0 C7 0.66 7 1.32 7 2 C7.66 2 8.32 2 9 2 C9.33 1.34 9.66 0.68 10 0 C10 0.99 10 1.98 10 3 C7.03 3 4.06 3 1 3 C0.67 2.01 0.34 1.02 0 0 Z " fill="#F1F07C" transform="translate(25,37)"/>
<path d="M0 0 C1.32 0 2.64 0 4 0 C4 0.66 4 1.32 4 2 C4.66 2 5.32 2 6 2 C6.33 1.34 6.66 0.68 7 0 C7 1.32 7 2.64 7 4 C4.69 4 2.38 4 0 4 C0 2.68 0 1.36 0 0 Z " fill="#EE5C5E" transform="translate(35,33)"/>
<path d="M0 0 C2.64 0.33 5.28 0.66 8 1 C8 1.66 8 2.32 8 3 C5.69 3 3.38 3 1 3 C0.67 2.01 0.34 1.02 0 0 Z " fill="#A4E0E8" transform="translate(38,40)"/>
<path d="M0 0 C2.31 0 4.62 0 7 0 C7 0.99 7 1.98 7 3 C5.02 3 3.04 3 1 3 C0.67 2.01 0.34 1.02 0 0 Z " fill="#F1EF71" transform="translate(36,37)"/>
</svg>
